<svg width="33" height="33" viewBox="0 0 33 33" fill="none" xmlns="http://www.w3.org/2000/svg">
<g clip-path="url(#clip0_196_681)">
<path d="M29.8307 9.23064L29.7201 9.14398V4.49998C29.7201 3.76398 29.1227 3.16664 28.3867 3.16664C27.6507 3.16664 27.0534 3.76398 27.0534 4.49998V7.05464L20.4974 1.91864C18.0774 0.0226431 14.6947 0.0226431 12.2747 1.91864L2.94272 9.23064C1.31872 10.5026 0.386719 12.416 0.386719 14.4786V25.8333C0.386719 29.5093 3.37739 32.5 7.05339 32.5H25.7201C29.3961 32.5 32.3867 29.5093 32.3867 25.8333V14.4786C32.3867 12.416 31.4547 10.5026 29.8307 9.23064ZM29.7201 25.8333C29.7201 28.0386 27.9254 29.8333 25.7201 29.8333H7.05339C4.84805 29.8333 3.05339 28.0386 3.05339 25.8333V14.4786C3.05339 13.2413 3.61205 12.0933 4.58672 11.3293L13.9201 4.01731C14.6467 3.44798 15.5161 3.16398 16.3867 3.16398C17.2574 3.16398 18.1281 3.44798 18.8534 4.01731L28.1867 11.3293C29.1614 12.0933 29.7201 13.2413 29.7201 14.4786V25.8333ZM23.0534 23.8333C23.0534 24.9373 22.1574 25.8333 21.0534 25.8333C19.9494 25.8333 19.0534 24.9373 19.0534 23.8333C19.0534 22.7293 19.9494 21.8333 21.0534 21.8333C22.1574 21.8333 23.0534 22.7293 23.0534 23.8333ZM11.7201 17.8333C10.6161 17.8333 9.72005 16.9373 9.72005 15.8333C9.72005 14.7293 10.6161 13.8333 11.7201 13.8333C12.8241 13.8333 13.7201 14.7293 13.7201 15.8333C13.7201 16.9373 12.8241 17.8333 11.7201 17.8333ZM20.2107 15.828L14.8774 25.1613C14.6307 25.592 14.1814 25.8333 13.7187 25.8333C13.4947 25.8333 13.2667 25.7773 13.0587 25.6573C12.4201 25.292 12.1974 24.4773 12.5627 23.8386L17.8961 14.5053C18.2614 13.8666 19.0761 13.6453 19.7147 14.0093C20.3534 14.3746 20.5761 15.1893 20.2107 15.828Z" fill="#212121"/>
</g>
<defs>
<clipPath id="clip0_196_681">
<rect width="32" height="32" fill="white" transform="translate(0.386719 0.5)"/>
</clipPath>
</defs>
</svg>
