<svg width="32" height="24" viewBox="0 0 32 24" fill="none" xmlns="http://www.w3.org/2000/svg">
<path fill-rule="evenodd" clip-rule="evenodd" d="M9.22381 21.397V22.6666V23.9362H8.66803V23.6279C8.49175 23.8565 8.22427 24 7.86068 24C7.14393 24 6.58203 23.4424 6.58203 22.6666C6.58203 21.8913 7.14393 21.3332 7.86068 21.3332C8.22427 21.3332 8.49175 21.4767 8.66803 21.7053V21.397H9.22381ZM7.92983 21.8536C7.44873 21.8536 7.15432 22.2203 7.15432 22.6666C7.15432 23.1129 7.44873 23.4795 7.92983 23.4795C8.38951 23.4795 8.69984 23.1287 8.69984 22.6666C8.69984 22.2045 8.38951 21.8536 7.92983 21.8536ZM28.0052 22.6666C28.0052 22.2203 28.2996 21.8536 28.7807 21.8536C29.241 21.8536 29.5507 22.2045 29.5507 22.6666C29.5507 23.1287 29.241 23.4795 28.7807 23.4795C28.2996 23.4795 28.0052 23.1129 28.0052 22.6666ZM30.0752 20.3773V22.6666V23.9362H29.5188V23.6279C29.3426 23.8565 29.0751 24 28.7115 24C27.9947 24 27.4328 23.4424 27.4328 22.6666C27.4328 21.8913 27.9947 21.3332 28.7115 21.3332C29.0751 21.3332 29.3426 21.4767 29.5188 21.7053V20.3773H30.0752ZM16.1227 21.8275C16.4807 21.8275 16.7109 22.0506 16.7696 22.4434H15.4432C15.5026 22.0768 15.7266 21.8275 16.1227 21.8275ZM14.8605 22.6666C14.8605 21.8749 15.3845 21.3332 16.1337 21.3332C16.8498 21.3332 17.3419 21.8749 17.3474 22.6666C17.3474 22.7408 17.3419 22.8101 17.3364 22.8788H15.4383C15.5185 23.336 15.8448 23.5008 16.2028 23.5008C16.4593 23.5008 16.7323 23.4047 16.9465 23.2351L17.2189 23.6443C16.9086 23.9045 16.556 24 16.171 24C15.4059 24 14.8605 23.474 14.8605 22.6666ZM22.8446 22.6666C22.8446 22.2203 23.139 21.8536 23.6202 21.8536C24.0798 21.8536 24.3902 22.2045 24.3902 22.6666C24.3902 23.1287 24.0798 23.4795 23.6202 23.4795C23.139 23.4795 22.8446 23.1129 22.8446 22.6666ZM24.9141 21.397V22.6666V23.9362H24.3583V23.6279C24.1814 23.8565 23.9146 24 23.551 24C22.8342 24 22.2723 23.4424 22.2723 22.6666C22.2723 21.8913 22.8342 21.3332 23.551 21.3332C23.9146 21.3332 24.1814 21.4767 24.3583 21.7053V21.397H24.9141ZM19.7058 22.6666C19.7058 23.437 20.2457 24 21.0695 24C21.4545 24 21.711 23.9149 21.9889 23.6972L21.722 23.2509C21.5133 23.3999 21.2942 23.4795 21.053 23.4795C20.6092 23.474 20.283 23.1554 20.283 22.6666C20.283 22.1777 20.6092 21.8591 21.053 21.8536C21.2942 21.8536 21.5133 21.9333 21.722 22.0823L21.9889 21.636C21.711 21.4183 21.4545 21.3332 21.0695 21.3332C20.2457 21.3332 19.7058 21.8962 19.7058 22.6666ZM26.1976 21.7053C26.342 21.4821 26.5507 21.3332 26.8715 21.3332C26.9841 21.3332 27.1445 21.3544 27.2675 21.4025L27.0961 21.923C26.9786 21.8749 26.8611 21.8591 26.7484 21.8591C26.3849 21.8591 26.2031 22.0926 26.2031 22.5128V23.9362H25.6467V21.397H26.1976V21.7053ZM11.9727 21.5989C11.7052 21.4238 11.3367 21.3332 10.9303 21.3332C10.2827 21.3332 9.86585 21.6414 9.86585 22.1461C9.86585 22.5602 10.1762 22.8155 10.7479 22.8952L11.0105 22.9323C11.3153 22.9749 11.4591 23.0545 11.4591 23.198C11.4591 23.3944 11.2559 23.5063 10.8764 23.5063C10.4914 23.5063 10.2135 23.3841 10.0262 23.2406L9.76424 23.6704C10.0691 23.8936 10.4541 24 10.8709 24C11.6091 24 12.0369 23.6546 12.0369 23.1712C12.0369 22.725 11.7003 22.4915 11.1439 22.4118L10.8819 22.3741C10.6414 22.3425 10.4486 22.2951 10.4486 22.1248C10.4486 21.9388 10.6303 21.8275 10.9352 21.8275C11.2614 21.8275 11.5772 21.9497 11.7321 22.0452L11.9727 21.5989ZM18.4706 21.7053C18.6145 21.4821 18.8232 21.3332 19.1439 21.3332C19.2566 21.3332 19.4169 21.3544 19.54 21.4025L19.3686 21.923C19.2511 21.8749 19.1335 21.8591 19.0209 21.8591C18.6573 21.8591 18.4755 22.0926 18.4755 22.5128V23.9362H17.9198V21.397L18.4706 21.397V21.7053ZM14.4008 21.397H13.4918V20.6266H12.9299V21.397H12.4115V21.9017H12.9299V23.06C12.9299 23.6492 13.1601 24 13.8174 24C14.0586 24 14.3365 23.9258 14.5128 23.8036L14.3524 23.3306C14.1865 23.426 14.0047 23.474 13.8603 23.474C13.5824 23.474 13.4918 23.3038 13.4918 23.049V21.9017H14.4008V21.397ZM6.09048 22.3425V23.9362H5.52859V22.5231C5.52859 22.0926 5.3468 21.8536 4.9673 21.8536C4.59821 21.8536 4.34175 22.0877 4.34175 22.5286V23.9362H3.77985V22.5231C3.77985 22.0926 3.59316 21.8536 3.22407 21.8536C2.84397 21.8536 2.59791 22.0877 2.59791 22.5286V23.9362H2.03662L2.03662 21.397H2.59301V21.7101C2.80173 21.4128 3.0686 21.3332 3.34159 21.3332C3.73211 21.3332 4.00999 21.5034 4.18628 21.7849C4.42193 21.4286 4.75858 21.3277 5.08482 21.3332C5.70548 21.3386 6.09048 21.7424 6.09048 22.3425Z" fill="#626262"/>
<path d="M20.2121 17.0824H11.7886V2.04451H20.2121V17.0824Z" fill="#FF5F00"/>
<path d="M12.3228 9.56379C12.3228 6.51327 13.7606 3.79596 15.9997 2.04482C14.3623 0.764299 12.2959 0 10.0501 0C4.73355 0 0.423828 4.28178 0.423828 9.56379C0.423828 14.8458 4.73355 19.1276 10.0501 19.1276C12.2959 19.1276 14.3623 18.3633 15.9997 17.0827C13.7606 15.3316 12.3228 12.6143 12.3228 9.56379Z" fill="#EB001B"/>
<path d="M31.5759 9.56379C31.5759 14.8458 27.2662 19.1276 21.9496 19.1276C19.7039 19.1276 17.6375 18.3633 15.9995 17.0827C18.2391 15.3316 19.6769 12.6143 19.6769 9.56379C19.6769 6.51327 18.2391 3.79596 15.9995 2.04482C17.6375 0.764299 19.7039 0 21.9496 0C27.2662 0 31.5759 4.28178 31.5759 9.56379Z" fill="#F79E1B"/>
</svg>
