<svg width="50" height="24" viewBox="0 0 50 24" fill="none" xmlns="http://www.w3.org/2000/svg">
<path fill-rule="evenodd" clip-rule="evenodd" d="M12.8252 19.8754H8.6104L5.44985 7.46306C5.29983 6.8921 4.98131 6.38733 4.51278 6.14943C3.34349 5.55156 2.05502 5.07576 0.649414 4.83579V4.35791H7.43907C8.37614 4.35791 9.07894 5.07576 9.19607 5.90945L10.8359 14.8629L15.0487 4.35791H19.1463L12.8252 19.8754ZM21.489 19.8754H17.5085L20.7862 4.35791H24.7667L21.489 19.8754ZM29.9164 8.6567C30.0336 7.82093 30.7364 7.34306 31.5563 7.34306C32.8448 7.22307 34.2483 7.46304 35.4197 8.05884L36.1225 4.71785C34.9511 4.23997 33.6627 4 32.4934 4C28.63 4 25.8188 6.1494 25.8188 9.1325C25.8188 11.4019 27.8101 12.5935 29.2157 13.3113C30.7364 14.0271 31.322 14.505 31.2049 15.2208C31.2049 16.2944 30.0336 16.7723 28.8643 16.7723C27.4587 16.7723 26.0531 16.4144 24.7667 15.8166L24.0639 19.1596C25.4695 19.7554 26.9902 19.9954 28.3958 19.9954C32.7277 20.1133 35.4197 17.966 35.4197 14.7429C35.4197 10.684 29.9164 10.4461 29.9164 8.6567ZM49.3504 19.8754L46.1898 4.35791H42.795C42.0922 4.35791 41.3894 4.83579 41.1551 5.55156L35.3026 19.8754H39.4002L40.2181 17.6081H45.2528L45.7213 19.8754H49.3504ZM43.3807 8.53677L44.55 14.3851H41.2723L43.3807 8.53677Z" fill="#001A67"/>
</svg>
